<?xml version="1.0" encoding="utf-8"?>
<!-- Generator: Adobe Illustrator 22.0.1, SVG Export Plug-In . SVG Version: 6.00 Build 0)  -->
<svg version="1.0" xmlns="http://www.w3.org/2000/svg" xmlns:xlink="http://www.w3.org/1999/xlink" x="0px" y="0px"
	 viewBox="0 0 100.1 100.1" style="enable-background:new 0 0 100.1 100.1;" xml:space="preserve">
<style type="text/css">
	.st0{fill:none;stroke:#000000;stroke-linecap:round;stroke-linejoin:round;}
	.st1{fill:none;stroke:#000000;stroke-width:6;stroke-miterlimit:10;}
	.st2{fill:#D3357A;}
	.st3{fill:#FFFFFF;}
</style>
<g id="Default">
	<path d="M100.1,33.4v33.4H67c5.8-0.2,10.5-7,10.9-15.8c0-1.2,0-2.3-0.1-3.5c-0.1-0.8-0.2-1.6-0.4-2.4c-0.1-0.3-0.1-0.5-0.2-0.8
		c-0.1-0.3-0.1-0.5-0.2-0.8c-0.1-0.5-0.3-1-0.5-1.5c-0.1-0.2-0.2-0.5-0.3-0.7c-0.1-0.2-0.2-0.5-0.3-0.7c-0.1-0.2-0.2-0.4-0.3-0.6
		c-0.1-0.2-0.2-0.4-0.3-0.6s-0.2-0.4-0.4-0.6c-0.1-0.1-0.2-0.3-0.2-0.4c-0.1-0.1-0.2-0.2-0.2-0.4c-0.9-1.2-1.8-2.3-2.9-3.1
		c-0.1-0.1-0.3-0.2-0.4-0.3c-0.1,0-0.1-0.1-0.2-0.1c-0.1-0.1-0.3-0.2-0.4-0.2c-0.7-0.4-1.4-0.6-2.1-0.8c-0.2,0-0.4-0.1-0.5-0.1
		c-0.2,0-0.4-0.1-0.6-0.1c-0.2,0-0.4,0-0.6,0H100.1z"/>
	<path class="st2" d="M89,33.4C82.5,18.2,67.4,7.6,49.8,7.7C26.4,7.8,7.5,26.9,7.7,50.3c0.1,23.4,19.2,42.3,42.6,42.2
		C67.7,92.4,82.5,81.8,89,66.8c2.2-5.2,3.5-10.9,3.4-16.9C92.4,44,91.2,38.4,89,33.4z M49.2,66.8c0,0-0.1,0-0.1,0
		c-8.9-0.5-15.8-7.9-15.8-16.7c0-0.3,0-0.6,0-0.9c0-0.3,0-0.5,0.1-0.8c0-0.3,0.1-0.5,0.1-0.8c0.1-0.8,0.3-1.6,0.5-2.4
		c0.1-0.4,0.3-0.9,0.5-1.3c0-0.1,0.1-0.2,0.1-0.3c0.1-0.2,0.2-0.5,0.3-0.7c0.3-0.7,0.7-1.3,1.1-2c0.1-0.2,0.3-0.4,0.4-0.6
		c0.1-0.2,0.3-0.4,0.5-0.6s0.3-0.4,0.5-0.6c0.2-0.2,0.3-0.4,0.5-0.6c0.2-0.2,0.4-0.4,0.5-0.6c0.6-0.6,1.2-1.1,1.9-1.5
		c0.2-0.1,0.4-0.2,0.6-0.4c0.2-0.1,0.4-0.3,0.6-0.4c0.1,0,0.1-0.1,0.2-0.1c0.2-0.1,0.4-0.2,0.5-0.3c0.3-0.2,0.6-0.3,0.9-0.5
		c0.2-0.1,0.3-0.1,0.5-0.2c0,0,0.1,0,0.1,0c0.2-0.1,0.5-0.2,0.7-0.2c0.2-0.1,0.4-0.2,0.7-0.2c0.5-0.2,1-0.3,1.5-0.4
		c0.1,0,0.2,0,0.3-0.1c0.2,0,0.3-0.1,0.5-0.1c0,0,0,0,0,0c0.5-0.1,1-0.1,1.5-0.1c0,0,0.1,0,0.2,0c0.2,0,0.5,0,0.8,0h0.1
		c0.3,0,0.6,0,0.9,0c0.3,0,0.6,0,0.8,0.1c0.3,0,0.5,0.1,0.8,0.1c1.1,0.2,2.1,0.4,3.1,0.8c0.2,0.1,0.4,0.2,0.6,0.2
		c0.1,0,0.2,0.1,0.3,0.1c0.2,0.1,0.5,0.2,0.7,0.3c1.6,0.8,3.1,1.8,4.4,3.1c0.1,0.1,0.2,0.2,0.4,0.4c0.1,0.1,0.2,0.3,0.4,0.4
		c0.2,0.2,0.4,0.4,0.5,0.6s0.3,0.4,0.5,0.6c0.2,0.2,0.3,0.4,0.5,0.6c0.2,0.2,0.3,0.5,0.5,0.7c0.1,0.2,0.3,0.5,0.4,0.7
		c0.3,0.5,0.5,1,0.7,1.5c0.1,0.2,0.2,0.5,0.3,0.8c0.1,0.2,0.2,0.5,0.3,0.8c0.2,0.8,0.4,1.6,0.6,2.4c0.2,1.1,0.2,2.3,0.2,3.5
		c-0.5,8.8-7.6,15.6-16.3,15.8C50.1,66.8,49.6,66.8,49.2,66.8z"/>
</g>
<g id="Layer_2">
</g>
</svg>
