<?xml version="1.0" encoding="utf-8"?>
<!-- Generator: Adobe Illustrator 22.0.1, SVG Export Plug-In . SVG Version: 6.00 Build 0)  -->
<svg version="1.0" xmlns="http://www.w3.org/2000/svg" xmlns:xlink="http://www.w3.org/1999/xlink" x="0px" y="0px"
	 viewBox="0 0 100.1 100.1" style="enable-background:new 0 0 100.1 100.1;" xml:space="preserve">
<style type="text/css">
	.st0{fill:none;stroke:#000000;stroke-linecap:round;stroke-linejoin:round;}
	.st1{fill:none;stroke:#000000;stroke-width:6;stroke-miterlimit:10;}
	.st2{fill:#D3357A;}
	.st3{fill:#FFFFFF;}
</style>
<g id="Default">
	<path d="M44.5,34.3c-0.2,0.1-0.5,0.2-0.7,0.2c0.3-0.1,0.7-0.3,1-0.4C44.7,34.2,44.6,34.2,44.5,34.3z"/>
	<path d="M45.8,33.9c-0.3,0.1-0.7,0.2-1,0.3c0.1,0,0.2-0.1,0.3-0.1C45.4,34,45.6,33.9,45.8,33.9z"/>
	<path d="M66.7,67.1v33H33.3V66.2c0-4.6,4.1-8.6,9.9-10.3c-0.3,0.1-0.6,0.2-0.9,0.3c-0.2,0.1-0.4,0.1-0.5,0.2c-0.1,0-0.1,0-0.2,0.1
		c-0.2,0.1-0.4,0.2-0.6,0.3c-0.2,0.1-0.4,0.2-0.6,0.2c-0.7,0.3-1.3,0.7-1.9,1c-0.2,0.1-0.4,0.2-0.5,0.4c-0.2,0.1-0.4,0.3-0.5,0.4
		c-0.2,0.1-0.3,0.3-0.5,0.4s-0.3,0.3-0.5,0.4c-0.2,0.1-0.3,0.3-0.4,0.4c-0.4,0.4-0.8,0.9-1.1,1.3c-0.1,0.1-0.2,0.3-0.3,0.5
		c0,0.1-0.1,0.1-0.1,0.2c-0.2,0.3-0.3,0.6-0.5,0.9c-0.2,0.5-0.4,1.1-0.5,1.6c0,0.2-0.1,0.4-0.1,0.5c0,0.2-0.1,0.4-0.1,0.6
		c0,0.2,0,0.4,0,0.6c0,6,6.9,11,15.8,11.3C58.2,77.8,66,73.2,66.7,67.1z"/>
	<path d="M43.4,34.7c-0.1,0-0.1,0.1-0.2,0.1c0,0,0,0,0.1,0C43.3,34.7,43.4,34.7,43.4,34.7z"/>
	<path d="M43.7,34.6c-0.1,0-0.2,0.1-0.3,0.1C43.6,34.6,43.7,34.6,43.7,34.6C43.8,34.5,43.8,34.5,43.7,34.6z"/>
	<path class="st2" d="M49.8,7.7C26.4,7.8,7.5,26.9,7.7,50.3C7.8,67.6,18.3,82.5,33.3,89c5.2,2.2,10.9,3.5,17,3.5
		c5.8,0,11.4-1.2,16.4-3.4c15.2-6.5,25.8-21.6,25.7-39.2C92.3,26.4,73.2,7.5,49.8,7.7z M66.7,51c0,0.1,0,0.2,0,0.4
		c-0.7,9-8.5,15.9-17.6,15.4c-8.9-0.5-15.8-7.9-15.8-16.7c0-0.3,0-0.6,0-0.9c0-0.3,0-0.5,0.1-0.8c0-0.3,0.1-0.5,0.1-0.8
		c0.1-0.8,0.3-1.6,0.5-2.4c0.1-0.5,0.3-0.9,0.5-1.3c0-0.1,0.1-0.2,0.1-0.3c0.1-0.2,0.2-0.5,0.3-0.7c0.3-0.7,0.7-1.3,1.1-2
		c0.1-0.2,0.3-0.4,0.4-0.6c0.1-0.2,0.3-0.4,0.5-0.6s0.3-0.4,0.5-0.6c0.2-0.2,0.3-0.4,0.5-0.6c0.2-0.2,0.4-0.4,0.5-0.5
		c0.6-0.6,1.2-1.1,1.9-1.5c0.2-0.1,0.4-0.2,0.6-0.4c0.2-0.1,0.4-0.3,0.6-0.4c0.1,0,0.1-0.1,0.2-0.1c0.2-0.1,0.4-0.2,0.5-0.3
		c0.3-0.2,0.6-0.3,0.9-0.4c0.1,0,0.1-0.1,0.2-0.1c0.1,0,0.2-0.1,0.3-0.1c0,0,0.1,0,0.1,0c0.2-0.1,0.5-0.2,0.7-0.2
		c0.1,0,0.2-0.1,0.3-0.1c0.3-0.1,0.6-0.2,1-0.3c0,0,0.1,0,0.1,0c0.2,0,0.3-0.1,0.5-0.1c0.2,0,0.4-0.1,0.6-0.1c0,0,0.1,0,0.1,0
		c0,0,0,0,0.1,0c0.2,0,0.3-0.1,0.5-0.1c0,0,0,0,0,0c0.5-0.1,1-0.1,1.5-0.2c0.3,0,0.6,0,0.9,0c0.3,0,0.5,0,0.8,0c0,0,0.1,0,0.1,0
		c0.3,0,0.6,0,0.8,0.1c0.3,0,0.5,0.1,0.8,0.1c1.1,0.2,2.1,0.4,3.1,0.8c0.2,0.1,0.4,0.2,0.6,0.2c0.1,0,0.2,0.1,0.3,0.1
		c0.2,0.1,0.5,0.2,0.7,0.3c1.6,0.8,3.1,1.8,4.4,3.1c0.1,0.1,0.2,0.2,0.4,0.4c0.1,0.1,0.2,0.3,0.4,0.4c0.2,0.2,0.4,0.4,0.5,0.6
		s0.3,0.4,0.5,0.6c0.2,0.2,0.3,0.4,0.5,0.6c0.2,0.2,0.3,0.5,0.5,0.7c0.1,0.2,0.3,0.5,0.4,0.7c0.3,0.5,0.5,1,0.7,1.5
		c0.1,0.2,0.2,0.5,0.3,0.8c0.1,0.2,0.2,0.5,0.3,0.8c0.2,0.8,0.4,1.6,0.6,2.4C66.7,48.6,66.8,49.8,66.7,51z"/>
</g>
<g id="Layer_2">
</g>
</svg>
