<?xml version="1.0" encoding="utf-8"?>
<!-- Generator: Adobe Illustrator 22.0.1, SVG Export Plug-In . SVG Version: 6.00 Build 0)  -->
<svg version="1.0" xmlns="http://www.w3.org/2000/svg" xmlns:xlink="http://www.w3.org/1999/xlink" x="0px" y="0px"
	 viewBox="0 0 100.1 100.1" style="enable-background:new 0 0 100.1 100.1;" xml:space="preserve">
<style type="text/css">
	.st0{fill:none;stroke:#000000;stroke-linecap:round;stroke-linejoin:round;}
	.st1{fill:none;stroke:#000000;stroke-width:6;stroke-miterlimit:10;}
	.st2{fill:#D3357A;}
	.st3{fill:#FFFFFF;}
</style>
<g id="Default">
	<path d="M66.7-0.1V29c0-0.2-0.1-0.5-0.1-0.7c-0.1-0.5-0.3-1-0.6-1.4c-0.1-0.2-0.2-0.3-0.3-0.5c-0.1-0.2-0.2-0.3-0.3-0.4
		c-0.2-0.3-0.4-0.6-0.7-0.9c-0.1-0.1-0.3-0.3-0.4-0.4c-0.1-0.1-0.3-0.3-0.5-0.4c-0.2-0.1-0.3-0.3-0.5-0.4c-0.2-0.1-0.3-0.3-0.5-0.4
		c-0.2-0.1-0.3-0.2-0.5-0.4c-0.1-0.1-0.2-0.2-0.4-0.2c-0.1-0.1-0.2-0.1-0.4-0.2c-1.3-0.7-2.8-1.4-4.4-1.8c-0.2-0.1-0.5-0.1-0.7-0.2
		c-0.1,0-0.2,0-0.3-0.1c-0.2,0-0.4-0.1-0.6-0.1c-1-0.2-2-0.4-3.1-0.5c-0.3,0-0.5,0-0.8-0.1c-0.3,0-0.5,0-0.8,0c-0.3,0-0.6,0-0.9,0
		c-0.8,0-1.6,0-2.4,0.1c-0.2,0-0.4,0-0.5,0.1c-0.6,0.1-1.2,0.2-1.9,0.3c-0.2,0-0.5,0.1-0.7,0.1c-0.2,0-0.5,0.1-0.7,0.1
		c0,0,0,0-0.1,0c-0.2,0-0.3,0.1-0.5,0.1c-0.3,0.1-0.6,0.2-0.9,0.3c-0.2,0.1-0.4,0.1-0.5,0.2c-0.1,0-0.1,0-0.2,0.1
		c-0.2,0.1-0.4,0.1-0.6,0.2c-0.2,0.1-0.4,0.1-0.6,0.2c-0.7,0.3-1.3,0.6-1.9,0.9c-0.2,0.1-0.4,0.2-0.5,0.3c-0.2,0.1-0.4,0.2-0.5,0.3
		c-0.2,0.1-0.3,0.2-0.5,0.4c-0.2,0.1-0.3,0.2-0.5,0.4c-0.2,0.1-0.3,0.3-0.4,0.4c-0.4,0.4-0.8,0.8-1.1,1.2c-0.1,0.1-0.2,0.3-0.3,0.4
		c0,0.1-0.1,0.1-0.1,0.2c-0.2,0.3-0.3,0.5-0.5,0.8c-0.2,0.5-0.4,0.9-0.5,1.4c0,0.2-0.1,0.3-0.1,0.5c0,0.2-0.1,0.3-0.1,0.5
		c0,0.2,0,0.4,0,0.6c0,1.3,0.4,2.6,1.2,3.7c-0.8-1.2-1.3-2.5-1.3-3.8V-0.1H66.7z"/>
	<path class="st2" d="M66.7,11.1c-5.2-2.2-10.9-3.4-16.9-3.4c-5.9,0-11.5,1.3-16.5,3.4C18.1,17.6,7.6,32.7,7.7,50.3
		c0.1,23.4,19.2,42.3,42.6,42.1c23.4-0.1,42.3-19.2,42.1-42.6C92.3,32.4,81.7,17.5,66.7,11.1z M66.7,51c-0.5,9.2-8.4,16.3-17.6,15.8
		c-6-0.3-11.2-3.8-13.8-8.8c-0.3-0.5-0.5-1-0.8-1.6c-0.8-1.9-1.2-4-1.2-6.2c0-0.3,0-0.6,0-0.9c0-0.3,0-0.5,0.1-0.8
		c0-0.3,0.1-0.5,0.1-0.8c0.1-0.8,0.3-1.6,0.5-2.4c0.1-0.5,0.3-0.9,0.5-1.3c0-0.1,0.1-0.2,0.1-0.3c0.1-0.2,0.2-0.4,0.3-0.7
		c0.3-0.7,0.7-1.3,1.1-2c0.1-0.2,0.3-0.4,0.4-0.6c0.1-0.2,0.3-0.4,0.5-0.6c0.2-0.2,0.3-0.4,0.5-0.6c0.2-0.2,0.3-0.4,0.5-0.6
		c0.2-0.2,0.4-0.4,0.5-0.5c0.6-0.6,1.2-1.1,1.9-1.5c0.2-0.1,0.4-0.2,0.6-0.4c0.2-0.1,0.4-0.3,0.6-0.4c0.1,0,0.1-0.1,0.2-0.1
		c0.2-0.1,0.4-0.2,0.5-0.3c0.3-0.2,0.6-0.3,0.9-0.5c0.2-0.1,0.3-0.1,0.5-0.2c0,0,0.1,0,0.1,0c0.2-0.1,0.5-0.2,0.7-0.2
		c0.2-0.1,0.4-0.2,0.7-0.2c0.6-0.2,1.2-0.3,1.9-0.5c0.2,0,0.4-0.1,0.5-0.1c0.8-0.1,1.6-0.2,2.4-0.2c0.3,0,0.6,0,0.9,0
		c0.3,0,0.6,0,0.8,0.1c0.3,0,0.5,0.1,0.8,0.1c1.1,0.2,2.1,0.4,3.1,0.8c0.2,0.1,0.4,0.1,0.6,0.2c0.1,0,0.2,0.1,0.3,0.1
		c0.2,0.1,0.5,0.2,0.7,0.3c1.6,0.8,3.1,1.8,4.4,3.1c0.1,0.1,0.2,0.2,0.4,0.4c0.1,0.1,0.2,0.3,0.4,0.4c0.2,0.2,0.4,0.4,0.5,0.6
		c0.2,0.2,0.3,0.4,0.5,0.6c0.2,0.2,0.3,0.4,0.5,0.6c0.2,0.2,0.3,0.5,0.5,0.7c0.1,0.2,0.3,0.5,0.4,0.7c0.3,0.5,0.5,1,0.7,1.5
		c0.1,0.2,0.2,0.5,0.3,0.8c0.1,0.2,0.2,0.5,0.3,0.8c0.2,0.8,0.4,1.6,0.6,2.4c0.1,0.4,0.1,0.8,0.1,1.1C66.8,49.4,66.8,50.2,66.7,51z"
		/>
</g>
<g id="Layer_2">
</g>
</svg>
