<?xml version="1.0" encoding="utf-8"?>
<!-- Generator: Adobe Illustrator 22.0.1, SVG Export Plug-In . SVG Version: 6.00 Build 0)  -->
<svg version="1.0" xmlns="http://www.w3.org/2000/svg" xmlns:xlink="http://www.w3.org/1999/xlink" x="0px" y="0px"
	 viewBox="0 0 100.1 100.1" style="enable-background:new 0 0 100.1 100.1;" xml:space="preserve">
<style type="text/css">
	.st0{fill:none;stroke:#000000;stroke-linecap:round;stroke-linejoin:round;}
	.st1{fill:none;stroke:#000000;stroke-width:6;stroke-miterlimit:10;}
	.st2{fill:#D3357A;}
	.st3{fill:#FFFFFF;}
</style>
<g id="Default">
	<path d="M66.7,0H33.3c0,18.4-14.9,33.3-33.3,33.3v33.4c18.4,0,33.3,14.9,33.3,33.3h33.4c0-18.4,14.9-33.3,33.3-33.3V33.3
		C81.7,33.3,66.7,18.4,66.7,0z M50,55.9c-1.8-2.1-3.8-4.1-5.9-5.9c2.1-1.8,4.1-3.8,5.9-5.9c1.8,2.1,3.8,4,5.9,5.9
		C53.8,51.9,51.9,53.8,50,55.9z"/>
	<circle class="st3" cx="50.1" cy="50.1" r="16.8"/>
</g>
<g id="Layer_2">
</g>
</svg>
