<?xml version="1.0" encoding="utf-8"?>
<!-- Generator: Adobe Illustrator 22.0.1, SVG Export Plug-In . SVG Version: 6.00 Build 0)  -->
<svg version="1.0" xmlns="http://www.w3.org/2000/svg" xmlns:xlink="http://www.w3.org/1999/xlink" x="0px" y="0px"
	 viewBox="0 0 100.1 100.1" style="enable-background:new 0 0 100.1 100.1;" xml:space="preserve">
<style type="text/css">
	.st0{fill:#D3357A;}
</style>
<g id="Default">
	<path class="st0" d="M66.7,51c-0.5,9.2-8.4,16.3-17.6,15.7c-8.9-0.5-15.8-7.9-15.8-16.7c0-0.3,0-0.6,0-0.9c0-0.3,0-0.6,0.1-0.8
		c0-0.3,0.1-0.5,0.1-0.8c0.1-0.8,0.3-1.6,0.5-2.4c0.1-0.4,0.3-0.9,0.5-1.3c0-0.1,0.1-0.2,0.1-0.3c0.1-0.2,0.2-0.5,0.3-0.7
		c0.3-0.7,0.7-1.3,1.1-2c0.1-0.2,0.3-0.4,0.4-0.6c0.1-0.2,0.3-0.4,0.5-0.6c0.2-0.2,0.3-0.4,0.5-0.6c0.2-0.2,0.3-0.4,0.5-0.6
		c0.2-0.2,0.4-0.4,0.5-0.6c0.6-0.6,1.2-1.1,1.9-1.5c0.2-0.1,0.4-0.2,0.5-0.4c0.2-0.1,0.4-0.3,0.6-0.4c0.1,0,0.1-0.1,0.2-0.1
		c0.2-0.1,0.4-0.2,0.5-0.3c0.3-0.2,0.6-0.3,0.9-0.5c0.2-0.1,0.3-0.1,0.5-0.2c0,0,0.1,0,0.1,0c0.2-0.1,0.5-0.2,0.7-0.2
		c0.2-0.1,0.4-0.2,0.7-0.2c0.6-0.2,1.2-0.3,1.9-0.5c0.2,0,0.4-0.1,0.5-0.1c0.8-0.1,1.6-0.2,2.4-0.2c0.3,0,0.6,0,0.9,0
		c0.3,0,0.5,0,0.8,0.1c0.3,0,0.5,0.1,0.8,0.1c1.1,0.2,2.1,0.4,3.1,0.8c0.2,0.1,0.4,0.2,0.6,0.2c0.1,0,0.2,0.1,0.3,0.1
		c0.2,0.1,0.4,0.2,0.7,0.3c1.6,0.8,3.1,1.8,4.4,3.1c0.1,0.1,0.2,0.2,0.4,0.4c0.1,0.1,0.2,0.3,0.4,0.4c0.2,0.2,0.4,0.4,0.5,0.6
		c0.2,0.2,0.3,0.4,0.5,0.6c0.2,0.2,0.3,0.4,0.4,0.6c0.2,0.2,0.3,0.5,0.5,0.7c0.1,0.2,0.3,0.5,0.4,0.7c0.3,0.5,0.5,1,0.7,1.5
		c0.1,0.2,0.2,0.5,0.3,0.8c0.1,0.2,0.2,0.5,0.3,0.8c0.2,0.8,0.4,1.6,0.6,2.4C66.7,48.6,66.8,49.8,66.7,51z"/>
</g>
<g id="Layer_2">
</g>
</svg>
