<?xml version="1.0" encoding="utf-8"?>
<!-- Generator: Adobe Illustrator 22.0.1, SVG Export Plug-In . SVG Version: 6.00 Build 0)  -->
<svg version="1.0" xmlns="http://www.w3.org/2000/svg" xmlns:xlink="http://www.w3.org/1999/xlink" x="0px" y="0px"
	 viewBox="0 0 100.1 100.1" style="enable-background:new 0 0 100.1 100.1;" xml:space="preserve">
<style type="text/css">
	.st0{fill:#D3357A;}
</style>
<g id="Default">
	<path d="M50,38.3c0.2,0,0.4,0,0.5,0l0.1,0l0.1,0c0.1,0,0.2,0,0.3,0l0.2,0l0.2,0c0.1,0,0.3,0,0.4,0.1c0.7,0.1,1.4,0.3,2.1,0.5l0,0
		l0,0c0.1,0,0.3,0.1,0.4,0.2l0.1,0.1l0,0l0.1,0c0.1,0,0.2,0.1,0.3,0.2l0,0l0,0c1.1,0.5,2.2,1.3,3.1,2.1l0,0l0,0l0.1,0.1l0.2,0.2
		c0.1,0.1,0.1,0.1,0.2,0.2c0.1,0.1,0.2,0.3,0.3,0.4c0.1,0.2,0.3,0.3,0.4,0.5c0.1,0.1,0.2,0.3,0.3,0.4l0.1,0.1
		c0.1,0.1,0.1,0.2,0.2,0.2l0,0.1l0,0.1c0.1,0.1,0.1,0.2,0.2,0.3l0.1,0.1l0.1,0.1c0.1,0.2,0.3,0.5,0.4,0.9l0,0l0,0
		c0.1,0.1,0.1,0.2,0.2,0.4l0,0l0,0c0.1,0.2,0.1,0.4,0.2,0.6c0.2,0.5,0.3,1.1,0.4,1.6l0,0l0,0c0.1,0.8,0.2,1.6,0.1,2.4
		c-0.3,6-5.3,10.9-11.4,11.1c-0.1,0-0.2,0-0.3,0c-0.1,0-0.3,0-0.4,0l-0.8-0.1l0,0C42.8,61,38.3,56,38.3,50c0-0.2,0-0.4,0-0.6l0-0.1
		l0-0.1c0-0.1,0-0.2,0-0.3l0-0.2l0-0.2c0-0.1,0-0.3,0.1-0.5c0.1-0.5,0.2-1.1,0.4-1.6c0.1-0.3,0.2-0.6,0.3-0.9l0.1-0.2l0-0.1
		c0.1-0.1,0.1-0.2,0.2-0.3l0-0.1l0-0.1c0.2-0.4,0.5-0.9,0.7-1.3l0.1-0.1l0.1-0.1c0-0.1,0.1-0.1,0.1-0.2l0-0.1l0-0.1
		c0.1-0.1,0.2-0.3,0.3-0.4c0.1-0.1,0.1-0.2,0.2-0.3l0.1-0.1l0.1-0.2c0,0,0,0,0.1-0.1l0.1-0.1l0.1-0.2c0.1-0.1,0.2-0.2,0.3-0.3
		c0.4-0.4,0.8-0.7,1.3-1.1l0.1-0.1l0.1-0.1l0.2-0.1l0.2-0.1c0,0,0.1,0,0.1-0.1l0.2-0.1l0.1-0.1c0.1,0,0.2-0.1,0.3-0.1l0.1,0l0.1,0
		c0.2-0.1,0.3-0.2,0.5-0.3l0.1-0.1l0.1,0c0.1,0,0.2-0.1,0.3-0.1c0,0,0,0,0.1,0c0.1,0,0.2-0.1,0.3-0.1l0.1,0l0.1,0
		c0.1,0,0.2-0.1,0.2-0.1l0.1,0l0.1,0c0.3-0.1,0.6-0.2,0.9-0.2l0.2,0l0.2,0l0,0h0l0.1,0l1.7-0.1l0.1-0.1C49.8,38.3,49.9,38.3,50,38.3
		L50,38.3 M50,33.3L50,33.3c-0.3,0-0.6,0-0.8,0c-0.1,0-0.1,0-0.2,0c-0.5,0-1,0.1-1.5,0.2c0,0,0,0,0,0c-0.2,0-0.3,0-0.5,0.1
		c-0.1,0-0.2,0-0.3,0.1c-0.5,0.1-1,0.2-1.5,0.4c-0.2,0.1-0.5,0.1-0.7,0.2c-0.2,0.1-0.5,0.2-0.7,0.2c0,0-0.1,0-0.1,0
		c-0.2,0.1-0.3,0.1-0.5,0.2c-0.3,0.1-0.6,0.3-0.9,0.5c-0.2,0.1-0.4,0.2-0.5,0.3c-0.1,0-0.1,0.1-0.2,0.1c-0.2,0.1-0.4,0.2-0.6,0.4
		c-0.2,0.1-0.4,0.2-0.6,0.4c-0.7,0.5-1.3,1-1.9,1.5c-0.2,0.2-0.4,0.4-0.5,0.5c-0.2,0.2-0.4,0.4-0.5,0.6c-0.2,0.2-0.3,0.4-0.5,0.6
		s-0.3,0.4-0.5,0.6c-0.2,0.2-0.3,0.4-0.4,0.6c-0.4,0.6-0.8,1.3-1.1,2c-0.1,0.2-0.2,0.4-0.3,0.7c0,0.1-0.1,0.2-0.1,0.3
		c-0.2,0.4-0.3,0.9-0.5,1.3c-0.2,0.8-0.4,1.6-0.5,2.4c0,0.3-0.1,0.5-0.1,0.8c0,0.3-0.1,0.5-0.1,0.8c0,0.3,0,0.6,0,0.9
		c0,8.8,6.9,16.2,15.8,16.7c0,0,0.1,0,0.1,0c0,0,0,0,0,0c0.3,0,0.5,0,0.8,0c0.1,0,0.3,0,0.4,0c8.6-0.2,15.8-7,16.3-15.8
		c0.1-1.2,0-2.3-0.2-3.5c-0.1-0.8-0.3-1.6-0.6-2.4c-0.1-0.3-0.2-0.5-0.3-0.8c-0.1-0.3-0.2-0.5-0.3-0.8c-0.2-0.5-0.4-1-0.7-1.5
		c-0.1-0.2-0.3-0.5-0.4-0.7c-0.1-0.2-0.3-0.5-0.5-0.7c-0.2-0.2-0.3-0.4-0.4-0.6c-0.2-0.2-0.3-0.4-0.5-0.6c-0.2-0.2-0.4-0.4-0.5-0.6
		c-0.1-0.1-0.2-0.3-0.4-0.4c-0.1-0.1-0.2-0.2-0.4-0.4c-1.3-1.2-2.8-2.3-4.4-3.1c-0.2-0.1-0.5-0.2-0.7-0.3c-0.1,0-0.2-0.1-0.3-0.1
		c-0.2-0.1-0.4-0.2-0.6-0.2c-1-0.4-2-0.6-3.1-0.8c-0.3,0-0.5-0.1-0.8-0.1c-0.3,0-0.6-0.1-0.8-0.1C50.6,33.3,50.3,33.3,50,33.3
		L50,33.3z"/>
	<g>
		<path d="M95.1,61.7h-9.4l-1.3,3C78.5,78.4,65,87.3,50.2,87.4H50c-20.5,0-37.3-16.7-37.4-37.2c-0.1-20.6,16.6-37.5,37.2-37.6H50v-5
			h-0.2C26.3,7.8,7.4,26.9,7.6,50.3C7.7,73.6,26.7,92.4,50,92.4h0.2c17.4-0.1,32.3-10.7,38.7-25.7h11.1v-5H95.1z"/>
		<path d="M84.3,35.3l1.3,3h9.4h5v-5H88.9C82.4,18.2,67.4,7.7,50,7.7h0l0,5C64.9,12.7,78.4,21.5,84.3,35.3z"/>
	</g>
</g>
<g id="Layer_2">
</g>
</svg>
