<?xml version="1.0" encoding="utf-8"?>
<!-- Generator: Adobe Illustrator 22.0.1, SVG Export Plug-In . SVG Version: 6.00 Build 0)  -->
<svg version="1.0" xmlns="http://www.w3.org/2000/svg" xmlns:xlink="http://www.w3.org/1999/xlink" x="0px" y="0px"
	 viewBox="0 0 100.1 100.1" style="enable-background:new 0 0 100.1 100.1;" xml:space="preserve">
<style type="text/css">
	.st0{fill:#D3357A;}
</style>
<g id="Default">
	<path d="M50.1,38.3c0.1,0,0.3,0,0.4,0l0.8,0.1l0,0C57.3,39,61.8,44,61.8,50c0,0.2,0,0.4,0,0.6l0,0.1l0,0.1c0,0.1,0,0.2,0,0.3l0,0.2
		l0,0.2c0,0.1,0,0.3-0.1,0.5c-0.1,0.5-0.2,1.1-0.4,1.6c-0.1,0.3-0.2,0.6-0.3,0.9l-0.1,0.2l0,0.1c-0.1,0.1-0.1,0.2-0.2,0.3l0,0.1
		l0,0.1c-0.2,0.4-0.5,0.9-0.7,1.3l-0.1,0.1l-0.1,0.1c0,0.1-0.1,0.1-0.1,0.2l0,0.1l0,0.1c-0.1,0.1-0.2,0.3-0.3,0.4
		c-0.1,0.1-0.1,0.2-0.2,0.3l-0.1,0.1l-0.1,0.2c0,0,0,0-0.1,0.1l-0.1,0.1l-0.1,0.2c-0.1,0.1-0.2,0.2-0.3,0.3
		c-0.4,0.4-0.8,0.7-1.3,1.1l-0.1,0.1l-0.1,0.1l-0.2,0.1L56.3,60c0,0-0.1,0-0.1,0.1l-0.2,0.1l-0.1,0.1c-0.1,0-0.2,0.1-0.2,0.1l-0.1,0
		l-0.1,0c-0.2,0.1-0.3,0.2-0.5,0.3l-0.1,0.1l-0.1,0c-0.1,0-0.2,0.1-0.3,0.1c0,0,0,0-0.1,0c-0.1,0-0.2,0.1-0.3,0.1l-0.1,0l-0.1,0
		c-0.1,0-0.2,0.1-0.2,0.1l-0.1,0l-0.1,0c-0.3,0.1-0.6,0.2-0.9,0.2l-0.2,0l-0.2,0l0,0h0l-0.1,0l-1.7,0.1l-0.1,0.1c-0.1,0-0.2,0-0.2,0
		H50c-0.2,0-0.4,0-0.5,0l-0.1,0l-0.1,0c-0.1,0-0.2,0-0.3,0l-0.2,0l-0.2,0c-0.1,0-0.3,0-0.4-0.1c-0.7-0.1-1.4-0.3-2.1-0.5l0,0l0,0
		c-0.1,0-0.3-0.1-0.4-0.2l-0.1-0.1l0,0l-0.1,0c-0.1,0-0.2-0.1-0.3-0.2l0,0l0,0c-1.1-0.5-2.2-1.3-3.1-2.1l0,0l0,0l-0.1-0.1l-0.2-0.2
		c-0.1-0.1-0.1-0.1-0.2-0.2c-0.1-0.1-0.2-0.3-0.3-0.4c-0.1-0.2-0.3-0.3-0.4-0.5c-0.1-0.1-0.2-0.3-0.3-0.4l-0.1-0.1
		c-0.1-0.1-0.1-0.2-0.2-0.2l0-0.1l0-0.1c-0.1-0.1-0.1-0.2-0.2-0.3l-0.1-0.1l-0.1-0.1c-0.1-0.2-0.3-0.5-0.4-0.9l0,0l0,0
		c-0.1-0.1-0.1-0.2-0.2-0.4l0,0l0,0c-0.1-0.2-0.1-0.4-0.2-0.6c-0.2-0.5-0.3-1.1-0.4-1.6l0,0l0,0c-0.1-0.8-0.2-1.6-0.1-2.4
		c0.3-6,5.3-10.9,11.4-11.1C49.9,38.3,50,38.3,50.1,38.3 M50.1,33.3c-0.1,0-0.3,0-0.4,0c-8.6,0.2-15.8,7-16.3,15.8
		c-0.1,1.2,0,2.3,0.2,3.5c0.1,0.8,0.3,1.6,0.6,2.4c0.1,0.3,0.2,0.5,0.3,0.8c0.1,0.3,0.2,0.5,0.3,0.8c0.2,0.5,0.4,1,0.7,1.5
		c0.1,0.2,0.3,0.5,0.4,0.7c0.1,0.2,0.3,0.5,0.4,0.7c0.2,0.2,0.3,0.4,0.5,0.6c0.2,0.2,0.3,0.4,0.5,0.6c0.2,0.2,0.3,0.4,0.5,0.6
		c0.1,0.1,0.2,0.3,0.4,0.4c0.1,0.1,0.2,0.2,0.4,0.4c1.3,1.2,2.8,2.3,4.4,3.1c0.2,0.1,0.4,0.2,0.7,0.3c0.1,0,0.2,0.1,0.3,0.1
		c0.2,0.1,0.4,0.2,0.6,0.2c1,0.4,2,0.6,3.1,0.8c0.3,0,0.5,0.1,0.8,0.1c0.3,0,0.5,0.1,0.8,0.1c0.3,0,0.6,0,0.9,0h0.1
		c0.3,0,0.5,0,0.8,0c0,0,0.1,0,0.1,0c0.5,0,1-0.1,1.5-0.2c0,0,0,0,0,0c0.2,0,0.3,0,0.5-0.1c0.1,0,0.2,0,0.3-0.1
		c0.5-0.1,1-0.2,1.5-0.4c0.2-0.1,0.4-0.1,0.7-0.2c0.2-0.1,0.5-0.2,0.7-0.2c0,0,0.1,0,0.1,0c0.2-0.1,0.3-0.1,0.5-0.2
		c0.3-0.1,0.6-0.3,0.9-0.5c0.2-0.1,0.4-0.2,0.6-0.3c0,0,0.1-0.1,0.2-0.1c0.2-0.1,0.4-0.2,0.6-0.4c0.2-0.1,0.4-0.2,0.5-0.4
		c0.7-0.5,1.3-1,1.9-1.5c0.2-0.2,0.4-0.4,0.6-0.5c0.2-0.2,0.4-0.4,0.5-0.6c0.2-0.2,0.3-0.4,0.5-0.6c0.2-0.2,0.3-0.4,0.5-0.6
		c0.2-0.2,0.3-0.4,0.4-0.6c0.4-0.6,0.8-1.3,1.1-2c0.1-0.2,0.2-0.4,0.3-0.7c0-0.1,0.1-0.2,0.1-0.3c0.2-0.4,0.3-0.9,0.5-1.3
		c0.2-0.8,0.4-1.6,0.6-2.4c0-0.3,0.1-0.5,0.1-0.8c0-0.3,0.1-0.5,0.1-0.8c0-0.3,0-0.6,0-0.9c0-8.8-6.9-16.2-15.8-16.7
		c0,0-0.1,0-0.1,0c0,0,0,0,0,0C50.6,33.3,50.4,33.3,50.1,33.3L50.1,33.3z"/>
	<g>
		<path d="M5,38.3h9.4l1.3-3C21.6,21.6,35,12.8,49.9,12.7h0.2c20.5,0,37.3,16.7,37.4,37.2c0.1,20.6-16.6,37.5-37.2,37.6h-0.2v5h0.2
			c23.4-0.1,42.3-19.2,42.1-42.6C92.3,26.5,73.4,7.7,50.1,7.7h-0.2C32.5,7.8,17.6,18.3,11.1,33.3H0v5H5z"/>
		<path d="M15.7,64.8l-1.3-3H5H0v5h11.1c6.5,15.1,21.5,25.7,39,25.7h0l0-5C35.1,87.4,21.6,78.5,15.7,64.8z"/>
	</g>
</g>
<g id="Layer_2">
</g>
</svg>
