<?xml version="1.0" encoding="utf-8"?>
<!-- Generator: Adobe Illustrator 22.0.1, SVG Export Plug-In . SVG Version: 6.00 Build 0)  -->
<svg version="1.0" xmlns="http://www.w3.org/2000/svg" xmlns:xlink="http://www.w3.org/1999/xlink" x="0px" y="0px"
	 viewBox="0 0 100.1 100.1" style="enable-background:new 0 0 100.1 100.1;" xml:space="preserve">
<style type="text/css">
	.st0{fill:#D3357A;}
</style>
<g id="Default">
	<g>
		<path d="M0,33.3v5c14.6,1.4,29.3,8.6,41.1,20.4c2.1,2.1,4.1,4.3,5.9,6.6c1-1.4,2-2.7,3.1-4C37.5,45.9,19.2,35,0,33.3z"/>
		<path d="M0,62V67c15.1,2.9,30,17.7,32.8,32.8h0.8c0.3-3.1,0.8-6.2,1.5-9.2C28.9,76.5,14.6,64.4,0,62z"/>
		<path d="M50.1,61.2c1.1,1.3,2.1,2.7,3.1,4.1c1.8-2.2,3.7-4.4,5.8-6.5c11.7-11.8,26.5-19,41.1-20.4v-5
			C80.8,35.1,62.6,45.9,50.1,61.2z"/>
		<path d="M46.9,65.3c1.1,1.4,2.1,2.8,3.1,4.2c1-1.4,2-2.8,3.1-4.2c-1-1.4-2-2.7-3.1-4.1C49,62.6,47.9,63.9,46.9,65.3z"/>
		<path d="M35.1,90.7c-0.7,3-1.2,6.1-1.5,9.2h4.3C37.4,96.8,36.4,93.7,35.1,90.7z"/>
		<path d="M62.2,99.8C62.2,99.8,62.2,99.8,62.2,99.8l5.1,0.1c2.9-15.1,17.7-30,32.8-32.8V62C85.4,64.4,71.2,76.5,65,90.6
			c0.7,3,1.2,6.1,1.5,9.2H62.2z"/>
		<path d="M66.5,99.8c-0.3-3.1-0.8-6.2-1.5-9.2c-1.3,3-2.3,6.1-2.8,9.2H66.5z"/>
	</g>
</g>
<g id="Layer_2">
</g>
</svg>
