<?xml version="1.0" encoding="utf-8"?>
<!-- Generator: Adobe Illustrator 22.0.1, SVG Export Plug-In . SVG Version: 6.00 Build 0)  -->
<svg version="1.0" xmlns="http://www.w3.org/2000/svg" xmlns:xlink="http://www.w3.org/1999/xlink" x="0px" y="0px"
	 viewBox="0 0 100.1 100.1" style="enable-background:new 0 0 100.1 100.1;" xml:space="preserve">
<style type="text/css">
	.st0{fill:#D3357A;}
</style>
<g id="Default">
	<path d="M50,61.6c-0.2,0-0.4,0-0.6,0l-0.1,0l-0.1,0c-0.1,0-0.2,0-0.3,0l-0.2,0l-0.2,0c-0.1,0-0.3,0-0.5-0.1
		c-0.5-0.1-1.1-0.2-1.6-0.4c-0.3-0.1-0.6-0.2-0.9-0.3l-0.2-0.1l-0.1,0c-0.1-0.1-0.2-0.1-0.3-0.2l-0.1,0l-0.1,0
		c-0.4-0.2-0.9-0.5-1.3-0.7l-0.1-0.1l-0.1-0.1c-0.1,0-0.1-0.1-0.2-0.1l-0.1,0l-0.1,0c-0.1-0.1-0.3-0.2-0.4-0.3
		c-0.1-0.1-0.2-0.1-0.3-0.2l-0.1-0.1l-0.2-0.1c0,0,0,0-0.1-0.1l-0.1-0.1l-0.2-0.1c-0.1-0.1-0.2-0.2-0.3-0.3
		c-0.4-0.4-0.7-0.8-1.1-1.3l-0.1-0.1l-0.1-0.1l-0.1-0.2L40.1,56c0,0,0-0.1-0.1-0.1l-0.1-0.2l-0.1-0.1c0-0.1-0.1-0.2-0.1-0.2l0-0.1
		l0-0.1c-0.1-0.2-0.2-0.3-0.3-0.5l-0.1-0.1l0-0.1c0-0.1-0.1-0.2-0.1-0.3c0,0,0,0,0-0.1c0-0.1-0.1-0.2-0.1-0.3l0-0.1l0-0.1
		c0-0.1-0.1-0.2-0.1-0.2l0-0.1l0-0.1c-0.1-0.3-0.2-0.6-0.2-0.9l0-0.2l0-0.2l0,0v0l0-0.1l-0.1-1.7l-0.1-0.1c0-0.1,0-0.2,0-0.2v-0.1
		c0-0.2,0-0.4,0-0.5l0-0.1l0-0.1c0-0.1,0-0.2,0-0.3l0-0.2l0-0.2c0-0.1,0-0.3,0.1-0.4c0.1-0.7,0.3-1.4,0.5-2.1l0,0l0,0
		c0-0.1,0.1-0.3,0.2-0.4l0.1-0.1l0,0l0-0.1c0-0.1,0.1-0.2,0.2-0.3l0,0l0,0c0.5-1.1,1.3-2.2,2.1-3.1l0,0l0,0l0.1-0.1l0.2-0.2
		c0.1-0.1,0.1-0.1,0.2-0.2c0.1-0.1,0.3-0.2,0.4-0.3c0.2-0.1,0.3-0.3,0.5-0.4c0.1-0.1,0.3-0.2,0.4-0.3l0.1-0.1
		c0.1-0.1,0.2-0.1,0.2-0.2l0.1,0l0.1,0c0.1-0.1,0.2-0.1,0.3-0.2l0.1-0.1l0.1-0.1c0.2-0.1,0.5-0.3,0.9-0.4l0,0l0,0
		c0.1-0.1,0.2-0.1,0.4-0.2l0,0l0,0c0.2-0.1,0.4-0.1,0.6-0.2c0.5-0.2,1.1-0.3,1.6-0.4l0,0l0,0c0.6-0.1,1.1-0.1,1.7-0.1
		c0.2,0,0.4,0,0.7,0c6,0.3,10.9,5.3,11.1,11.4c0,0.2,0,0.5,0,0.7l-0.1,0.8l0,0C61,57.1,56,61.6,50,61.6 M50,66.6
		c8.8,0,16.2-6.9,16.7-15.8c0,0,0-0.1,0-0.1c0-0.4,0-0.8,0-1.2c-0.2-8.6-7-15.8-15.8-16.3c-0.3,0-0.6,0-1,0c-0.9,0-1.7,0.1-2.5,0.2
		c-0.8,0.1-1.6,0.3-2.4,0.6c-0.3,0.1-0.5,0.2-0.8,0.3c-0.3,0.1-0.5,0.2-0.8,0.3c-0.5,0.2-1,0.4-1.5,0.7c-0.2,0.1-0.5,0.3-0.7,0.4
		c-0.2,0.1-0.5,0.3-0.7,0.5c-0.2,0.2-0.4,0.3-0.6,0.5c-0.2,0.2-0.4,0.3-0.6,0.5c-0.2,0.2-0.4,0.4-0.6,0.5c-0.1,0.1-0.3,0.2-0.4,0.4
		c-0.1,0.1-0.2,0.2-0.4,0.4c-1.2,1.3-2.3,2.8-3.1,4.4c-0.1,0.2-0.2,0.5-0.3,0.7c0,0.1-0.1,0.2-0.1,0.3c-0.1,0.2-0.2,0.4-0.2,0.6
		c-0.4,1-0.6,2-0.8,3.1c0,0.3-0.1,0.5-0.1,0.8c0,0.3-0.1,0.5-0.1,0.8c0,0.3,0,0.6,0,0.9v0.1c0,0.3,0,0.5,0,0.8c0,0,0,0.1,0,0.1
		c0,0.5,0.1,1,0.2,1.5c0,0,0,0,0,0c0,0.2,0,0.3,0.1,0.5c0,0.1,0,0.2,0.1,0.3c0.1,0.5,0.2,1,0.4,1.5c0.1,0.2,0.1,0.5,0.2,0.7
		c0.1,0.2,0.2,0.5,0.2,0.7c0,0,0,0.1,0,0.1c0.1,0.2,0.1,0.3,0.2,0.5c0.1,0.3,0.3,0.6,0.5,0.9c0.1,0.2,0.2,0.4,0.3,0.5
		c0,0,0.1,0.1,0.1,0.2c0.1,0.2,0.2,0.4,0.4,0.6c0.1,0.2,0.2,0.4,0.4,0.5c0.5,0.7,1,1.3,1.5,1.9c0.2,0.2,0.4,0.4,0.5,0.5
		c0.2,0.2,0.4,0.4,0.6,0.5c0.2,0.2,0.4,0.3,0.6,0.5c0.2,0.2,0.4,0.3,0.6,0.5c0.2,0.2,0.4,0.3,0.6,0.4c0.6,0.4,1.3,0.8,1.9,1.1
		c0.2,0.1,0.4,0.2,0.7,0.3c0.1,0,0.2,0.1,0.3,0.1c0.4,0.2,0.9,0.3,1.3,0.5c0.8,0.2,1.6,0.4,2.4,0.5c0.3,0,0.5,0.1,0.8,0.1
		c0.3,0,0.6,0.1,0.8,0.1C49.4,66.6,49.7,66.6,50,66.6L50,66.6z"/>
	<g>
		<path d="M61.7,4.8v9.4l3,1.3c13.7,5.9,22.6,19.3,22.7,34.2v0.2c0,20.5-16.7,37.3-37.2,37.4c-20.6,0.1-37.5-16.6-37.6-37.2v-0.2h-5
			v0.2c0.1,23.4,19.2,42.3,42.6,42.1c23.3-0.1,42.2-19.1,42.2-42.4v-0.2c-0.1-17.4-10.7-32.3-25.7-38.7V-0.2h-5V4.8z"/>
		<path d="M35.3,15.5l3-1.3V4.8v-5h-5v11.1c-15.1,6.5-25.7,21.5-25.7,39v0l5,0C12.7,34.9,21.6,21.4,35.3,15.5z"/>
	</g>
</g>
<g id="Layer_2">
</g>
</svg>
