<?xml version="1.0" encoding="utf-8"?>
<!-- Generator: Adobe Illustrator 22.0.1, SVG Export Plug-In . SVG Version: 6.00 Build 0)  -->
<svg version="1.0" xmlns="http://www.w3.org/2000/svg" xmlns:xlink="http://www.w3.org/1999/xlink" x="0px" y="0px"
	 viewBox="0 0 100.1 100.1" style="enable-background:new 0 0 100.1 100.1;" xml:space="preserve">
<style type="text/css">
	.st0{fill:#D3357A;}
</style>
<g id="Default">
	<g>
		<path d="M33.4,100.1h5c1.4-14.6,8.6-29.3,20.4-41.1c2.1-2.1,4.3-4.1,6.6-5.9c-1.4-1-2.7-2-4-3.1C46,62.5,35.1,80.8,33.4,100.1z"/>
		<path d="M62.1,100.1h5.1C70,85,84.9,70.1,100,67.3v-0.8c-3.1-0.3-6.2-0.8-9.2-1.5C76.6,71.1,64.5,85.4,62.1,100.1z"/>
		<path d="M61.3,50c1.3-1.1,2.7-2.1,4.1-3.1c-2.2-1.8-4.4-3.7-6.5-5.8C47.1,29.4,39.9,14.6,38.5,0h-5C35.2,19.2,46,37.4,61.3,50z"/>
		<path d="M65.4,53.1c1.4-1.1,2.8-2.1,4.2-3.1c-1.4-1-2.8-2-4.2-3.1c-1.4,1-2.7,2-4.1,3.1C62.7,51.1,64,52.1,65.4,53.1z"/>
		<path d="M90.8,64.9c3,0.7,6.1,1.2,9.2,1.5v-4.3C96.9,62.7,93.8,63.6,90.8,64.9z"/>
		<path d="M99.9,37.9C99.9,37.9,99.9,37.9,99.9,37.9l0.1-5.1C84.9,29.9,70,15.1,67.2,0h-5.1c2.4,14.6,14.5,28.9,28.6,35.1
			c3-0.7,6.1-1.2,9.2-1.5V37.9z"/>
		<path d="M99.9,33.6c-3.1,0.3-6.2,0.8-9.2,1.5c3,1.3,6.1,2.3,9.2,2.8V33.6z"/>
	</g>
</g>
<g id="Layer_2">
</g>
</svg>
