<?xml version="1.0" encoding="utf-8"?>
<!-- Generator: Adobe Illustrator 22.0.1, SVG Export Plug-In . SVG Version: 6.00 Build 0)  -->
<svg version="1.0" xmlns="http://www.w3.org/2000/svg" xmlns:xlink="http://www.w3.org/1999/xlink" x="0px" y="0px"
	 viewBox="0 0 100.1 100.1" style="enable-background:new 0 0 100.1 100.1;" xml:space="preserve">
<style type="text/css">
	.st0{fill:#D3357A;}
</style>
<g id="Default">
	<g>
		<path d="M100.1,66.6v-5C85.5,60.2,70.7,52.9,59,41.2c-2.1-2.1-4.1-4.3-5.9-6.6c-1,1.4-2,2.7-3.1,4C62.5,54,80.8,64.9,100.1,66.6z"
			/>
		<path d="M100.1,37.9v-5.1C85,29.9,70.1,15.1,67.3,0h-0.8c-0.3,3.1-0.8,6.2-1.5,9.2C71.1,23.3,85.4,35.5,100.1,37.9z"/>
		<path d="M50,38.6c-1.1-1.3-2.1-2.7-3.1-4.1c-1.8,2.2-3.7,4.4-5.8,6.5C29.4,52.8,14.6,60.1,0,61.5v5C19.2,64.8,37.5,53.9,50,38.6z"
			/>
		<path d="M53.1,34.6C52,33.2,51,31.8,50,30.4c-1,1.4-2,2.8-3.1,4.2c1,1.4,2,2.7,3.1,4.1C51.1,37.3,52.1,36,53.1,34.6z"/>
		<path d="M65,9.2c0.7-3,1.2-6.1,1.5-9.2h-4.3C62.7,3.1,63.6,6.2,65,9.2z"/>
		<path d="M37.9,0.1C37.9,0.1,37.9,0,37.9,0.1L32.8,0C30,15.1,15.1,30,0,32.8v5.1c14.6-2.4,28.9-14.5,35.1-28.6
			c-0.7-3-1.2-6.1-1.5-9.2H37.9z"/>
		<path d="M33.6,0.1c0.3,3.1,0.8,6.2,1.5,9.2c1.3-3,2.3-6.1,2.8-9.2H33.6z"/>
	</g>
</g>
<g id="Layer_2">
</g>
</svg>
