<?xml version="1.0" encoding="utf-8"?>
<!-- Generator: Adobe Illustrator 22.0.1, SVG Export Plug-In . SVG Version: 6.00 Build 0)  -->
<svg version="1.0" xmlns="http://www.w3.org/2000/svg" xmlns:xlink="http://www.w3.org/1999/xlink" x="0px" y="0px"
	 viewBox="0 0 100.1 100.1" style="enable-background:new 0 0 100.1 100.1;" xml:space="preserve">
<style type="text/css">
	.st0{fill:#D3357A;}
</style>
<g id="Default">
	<g>
		<path d="M66.6,0h-5C60.2,14.6,53,29.3,41.3,41.1c-2.1,2.1-4.3,4.1-6.6,5.9c1.4,1,2.7,2,4,3.1C54.1,37.5,65,19.2,66.6,0z"/>
		<path d="M38,0h-5.1C30,15.1,15.2,30,0.1,32.8v0.8c3.1,0.3,6.2,0.8,9.2,1.5C23.4,28.9,35.6,14.6,38,0z"/>
		<path d="M38.7,50.1c-1.3,1.1-2.7,2.1-4.1,3.1c2.2,1.8,4.4,3.7,6.5,5.8c11.8,11.7,19,26.5,20.4,41.1h5C64.9,80.9,54,62.6,38.7,50.1
			z"/>
		<path d="M34.7,46.9c-1.4,1.1-2.8,2.1-4.2,3.1c1.4,1,2.8,2,4.2,3.1c1.4-1,2.7-2,4.1-3.1C37.4,49,36.1,47.9,34.7,46.9z"/>
		<path d="M9.3,35.1c-3-0.7-6.1-1.2-9.2-1.5v4.3C3.2,37.4,6.3,36.4,9.3,35.1z"/>
		<path d="M0.2,62.2C0.1,62.2,0.1,62.2,0.2,62.2l-0.1,5.1c15.1,2.9,30,17.7,32.8,32.8H38C35.6,85.5,23.5,71.2,9.3,65
			c-3,0.7-6.1,1.2-9.2,1.5V62.2z"/>
		<path d="M0.2,66.5c3.1-0.3,6.2-0.8,9.2-1.5c-3-1.3-6.1-2.3-9.2-2.8V66.5z"/>
	</g>
</g>
<g id="Layer_2">
</g>
</svg>
