<?xml version="1.0" encoding="utf-8"?>
<!-- Generator: Adobe Illustrator 22.0.1, SVG Export Plug-In . SVG Version: 6.00 Build 0)  -->
<svg version="1.0" xmlns="http://www.w3.org/2000/svg" xmlns:xlink="http://www.w3.org/1999/xlink" x="0px" y="0px"
	 viewBox="0 0 100.1 100.1" style="enable-background:new 0 0 100.1 100.1;" xml:space="preserve">
<style type="text/css">
	.st0{fill:#D3357A;}
</style>
<g id="Default">
	<path d="M50.1,38.9c0.1,0,0.3,0,0.4,0l0.8,0.1l0,0c5.9,0.6,10.5,5.6,10.5,11.6c0,0.2,0,0.4,0,0.6l0,0.1l0,0.1c0,0.1,0,0.2,0,0.3
		l0,0.2l0,0.2c0,0.1,0,0.3-0.1,0.5c-0.1,0.5-0.2,1.1-0.4,1.6c-0.1,0.3-0.2,0.6-0.3,0.9l-0.1,0.2l0,0.1c-0.1,0.1-0.1,0.2-0.2,0.3
		l0,0.1l0,0.1c-0.2,0.4-0.5,0.9-0.7,1.3l-0.1,0.1l-0.1,0.1c0,0.1-0.1,0.1-0.1,0.2l0,0.1l0,0.1c-0.1,0.1-0.2,0.3-0.3,0.4
		C59.1,58,59,58.1,59,58.2l-0.1,0.1l-0.1,0.2c0,0,0,0-0.1,0.1l-0.1,0.1l-0.1,0.2c-0.1,0.1-0.2,0.2-0.3,0.3c-0.4,0.4-0.8,0.7-1.3,1.1
		l-0.1,0.1l-0.1,0.1l-0.2,0.1l-0.2,0.1c0,0-0.1,0-0.1,0.1l-0.2,0.1l-0.1,0.1c-0.1,0-0.2,0.1-0.2,0.1l-0.1,0l-0.1,0
		c-0.2,0.1-0.3,0.2-0.5,0.3l-0.1,0.1l-0.1,0c-0.1,0-0.2,0.1-0.3,0.1c0,0,0,0-0.1,0c-0.1,0-0.2,0.1-0.3,0.1l-0.1,0l-0.1,0
		c-0.1,0-0.2,0.1-0.2,0.1l-0.1,0l-0.1,0c-0.3,0.1-0.6,0.2-0.9,0.2l-0.2,0l-0.2,0l0,0h0l-0.1,0l-1.7,0.1l-0.1,0.1c-0.1,0-0.2,0-0.2,0
		H50c-0.2,0-0.4,0-0.5,0l-0.1,0l-0.1,0c-0.1,0-0.2,0-0.3,0l-0.2,0l-0.2,0c-0.1,0-0.3,0-0.4-0.1c-0.7-0.1-1.4-0.3-2.1-0.5l0,0l0,0
		c-0.1,0-0.3-0.1-0.4-0.2l-0.1-0.1l0,0l-0.1,0c-0.1,0-0.2-0.1-0.3-0.2l0,0l0,0c-1.1-0.5-2.2-1.3-3.1-2.1l0,0l0,0l-0.1-0.1l-0.2-0.2
		c-0.1-0.1-0.1-0.1-0.2-0.2c-0.1-0.1-0.2-0.3-0.3-0.4c-0.1-0.2-0.3-0.3-0.4-0.5c-0.1-0.1-0.2-0.3-0.3-0.4L40.3,57
		c-0.1-0.1-0.1-0.2-0.2-0.2l0-0.1l0-0.1c-0.1-0.1-0.1-0.2-0.2-0.3l-0.1-0.1l-0.1-0.1c-0.1-0.2-0.3-0.5-0.4-0.9l0,0l0,0
		c-0.1-0.1-0.1-0.2-0.2-0.4l0,0l0,0c-0.1-0.2-0.1-0.4-0.2-0.6c-0.2-0.5-0.3-1.1-0.4-1.6l0,0l0,0c-0.1-0.8-0.2-1.6-0.1-2.4
		c0.3-6,5.3-10.9,11.4-11.1C49.9,38.9,50,38.9,50.1,38.9 M50.1,33.9c-0.1,0-0.3,0-0.4,0c-8.6,0.2-15.8,7-16.3,15.8
		c-0.1,1.2,0,2.3,0.2,3.5c0.1,0.8,0.3,1.6,0.6,2.4c0.1,0.3,0.2,0.5,0.3,0.8c0.1,0.3,0.2,0.5,0.3,0.8c0.2,0.5,0.4,1,0.7,1.5
		c0.1,0.2,0.3,0.5,0.4,0.7c0.1,0.2,0.3,0.5,0.4,0.7c0.2,0.2,0.3,0.4,0.5,0.6c0.2,0.2,0.3,0.4,0.5,0.6c0.2,0.2,0.3,0.4,0.5,0.6
		c0.1,0.1,0.2,0.3,0.4,0.4c0.1,0.1,0.2,0.2,0.4,0.4c1.3,1.2,2.8,2.3,4.4,3.1c0.2,0.1,0.4,0.2,0.7,0.3c0.1,0,0.2,0.1,0.3,0.1
		c0.2,0.1,0.4,0.2,0.6,0.2c1,0.4,2,0.6,3.1,0.8c0.3,0,0.5,0.1,0.8,0.1c0.3,0,0.5,0.1,0.8,0.1c0.3,0,0.6,0,0.9,0h0.1
		c0.3,0,0.5,0,0.8,0c0,0,0.1,0,0.1,0c0.5,0,1-0.1,1.5-0.2c0,0,0,0,0,0c0.2,0,0.3,0,0.5-0.1c0.1,0,0.2,0,0.3-0.1
		c0.5-0.1,1-0.2,1.5-0.4c0.2-0.1,0.4-0.1,0.7-0.2c0.2-0.1,0.5-0.2,0.7-0.2c0,0,0.1,0,0.1,0c0.2-0.1,0.3-0.1,0.5-0.2
		c0.3-0.1,0.6-0.3,0.9-0.5c0.2-0.1,0.4-0.2,0.6-0.3c0,0,0.1-0.1,0.2-0.1c0.2-0.1,0.4-0.2,0.6-0.4c0.2-0.1,0.4-0.2,0.5-0.4
		c0.7-0.5,1.3-1,1.9-1.5c0.2-0.2,0.4-0.4,0.6-0.5c0.2-0.2,0.4-0.4,0.5-0.6c0.2-0.2,0.3-0.4,0.5-0.6c0.2-0.2,0.3-0.4,0.5-0.6
		c0.2-0.2,0.3-0.4,0.4-0.6c0.4-0.6,0.8-1.3,1.1-2c0.1-0.2,0.2-0.4,0.3-0.7c0-0.1,0.1-0.2,0.1-0.3c0.2-0.4,0.3-0.9,0.5-1.3
		c0.2-0.8,0.4-1.6,0.6-2.4c0-0.3,0.1-0.5,0.1-0.8c0-0.3,0.1-0.5,0.1-0.8c0-0.3,0-0.6,0-0.9c0-8.8-6.9-16.2-15.8-16.7
		c0,0-0.1,0-0.1,0c0,0,0,0,0,0C50.6,33.9,50.3,33.9,50.1,33.9L50.1,33.9z"/>
	<g>
		<path d="M67.2,0h-5.1c2.9,17.7,20.2,35,37.9,37.9v-5.1C85,29.9,70.2,15.1,67.2,0z"/>
		<path d="M32.8,0C29.9,15,15.1,29.9,0,32.8v5.1c17.7-3,34.9-20.2,37.9-37.9H32.8z"/>
	</g>
	<g>
		<path d="M32.8,100.1h5.1C35,82.4,17.7,65.1,0,62.2v5.1C15.1,70.2,29.9,85,32.8,100.1z"/>
		<path d="M62.2,100.1h5.1C70.1,85,85,70.1,100.1,67.3v-5.1C82.3,65.1,65.1,82.3,62.2,100.1z"/>
	</g>
</g>
<g id="Layer_2">
</g>
</svg>
