<?xml version="1.0" encoding="utf-8"?>
<!-- Generator: Adobe Illustrator 22.0.1, SVG Export Plug-In . SVG Version: 6.00 Build 0)  -->
<svg version="1.0" xmlns="http://www.w3.org/2000/svg" xmlns:xlink="http://www.w3.org/1999/xlink" x="0px" y="0px"
	 viewBox="0 0 100.1 100.1" style="enable-background:new 0 0 100.1 100.1;" xml:space="preserve">
<style type="text/css">
	.st0{fill:#D3357A;}
</style>
<g id="Default">
	<path d="M50,38.3c0.2,0,0.4,0,0.6,0l0.1,0l0.1,0c0.1,0,0.2,0,0.3,0l0.2,0l0.2,0c0.1,0,0.3,0,0.5,0.1c0.5,0.1,1.1,0.2,1.6,0.4
		c0.3,0.1,0.6,0.2,0.9,0.3l0.2,0.1l0.1,0c0.1,0.1,0.2,0.1,0.3,0.2l0.1,0l0.1,0c0.4,0.2,0.9,0.5,1.3,0.7l0.1,0.1l0.1,0.1
		c0.1,0,0.1,0.1,0.2,0.1l0.1,0l0.1,0c0.1,0.1,0.3,0.2,0.4,0.3c0.1,0.1,0.2,0.1,0.3,0.2l0.1,0.1l0.2,0.1c0,0,0,0,0.1,0.1l0.1,0.1
		l0.2,0.1c0.1,0.1,0.2,0.2,0.3,0.3c0.4,0.4,0.7,0.8,1.1,1.3l0.1,0.1l0.1,0.1l0.1,0.2l0.1,0.2c0,0,0,0.1,0.1,0.1l0.1,0.2l0.1,0.1
		c0,0.1,0.1,0.2,0.1,0.2l0,0.1l0,0.1c0.1,0.2,0.2,0.3,0.3,0.5l0.1,0.1l0,0.1c0,0.1,0.1,0.2,0.1,0.3c0,0,0,0,0,0.1
		c0,0.1,0.1,0.2,0.1,0.3l0,0.1l0,0.1c0,0.1,0.1,0.2,0.1,0.2l0,0.1l0,0.1c0.1,0.3,0.2,0.6,0.2,0.9l0,0.2l0,0.2l0,0v0l0,0.1l0.1,1.7
		l0.1,0.1c0,0.1,0,0.2,0,0.2v0.1c0,0.2,0,0.4,0,0.5l0,0.1l0,0.1c0,0.1,0,0.2,0,0.3l0,0.2l0,0.2c0,0.1,0,0.3-0.1,0.4
		c-0.1,0.7-0.3,1.4-0.5,2.1l0,0l0,0c0,0.1-0.1,0.3-0.2,0.4l-0.1,0.1l0,0l0,0.1c0,0.1-0.1,0.2-0.2,0.3l0,0l0,0
		c-0.5,1.1-1.3,2.2-2.1,3.1l0,0l0,0l-0.1,0.1l-0.2,0.2c-0.1,0.1-0.1,0.1-0.2,0.2c-0.1,0.1-0.3,0.2-0.4,0.3c-0.2,0.1-0.3,0.3-0.5,0.4
		c-0.1,0.1-0.3,0.2-0.4,0.3l-0.1,0.1c-0.1,0.1-0.2,0.1-0.2,0.2l-0.1,0l-0.1,0c-0.1,0.1-0.2,0.1-0.3,0.2l-0.1,0.1l-0.1,0.1
		c-0.2,0.1-0.5,0.3-0.9,0.4l0,0l0,0c-0.1,0.1-0.2,0.1-0.4,0.2l0,0l0,0c-0.2,0.1-0.4,0.1-0.6,0.2c-0.5,0.2-1.1,0.3-1.6,0.4l0,0l0,0
		c-0.6,0.1-1.1,0.1-1.7,0.1c-0.2,0-0.4,0-0.7,0c-6-0.3-10.9-5.3-11.1-11.4c0-0.2,0-0.5,0-0.7l0.1-0.8l0,0C39,42.9,44,38.3,50,38.3
		 M50,33.3c-8.8,0-16.2,6.9-16.7,15.8c0,0,0,0.1,0,0.1c0,0.4,0,0.8,0,1.2c0.2,8.6,7,15.8,15.8,16.3c0.3,0,0.6,0,1,0
		c0.9,0,1.7-0.1,2.5-0.2c0.8-0.1,1.6-0.3,2.4-0.6c0.3-0.1,0.5-0.2,0.8-0.3c0.3-0.1,0.5-0.2,0.8-0.3c0.5-0.2,1-0.4,1.5-0.7
		c0.2-0.1,0.5-0.3,0.7-0.4c0.2-0.1,0.5-0.3,0.7-0.5c0.2-0.2,0.4-0.3,0.6-0.5c0.2-0.2,0.4-0.3,0.6-0.5c0.2-0.2,0.4-0.4,0.6-0.5
		c0.1-0.1,0.3-0.2,0.4-0.4c0.1-0.1,0.2-0.2,0.4-0.4c1.2-1.3,2.3-2.8,3.1-4.4c0.1-0.2,0.2-0.5,0.3-0.7c0-0.1,0.1-0.2,0.1-0.3
		c0.1-0.2,0.2-0.4,0.2-0.6c0.4-1,0.6-2,0.8-3.1c0-0.3,0.1-0.5,0.1-0.8c0-0.3,0.1-0.5,0.1-0.8c0-0.3,0-0.6,0-0.9V50
		c0-0.3,0-0.5,0-0.8c0,0,0-0.1,0-0.1c0-0.5-0.1-1-0.2-1.5c0,0,0,0,0,0c0-0.2,0-0.3-0.1-0.5c0-0.1,0-0.2-0.1-0.3
		c-0.1-0.5-0.2-1-0.4-1.5c-0.1-0.2-0.1-0.5-0.2-0.7c-0.1-0.2-0.2-0.5-0.2-0.7c0,0,0-0.1,0-0.1c-0.1-0.2-0.1-0.3-0.2-0.5
		c-0.1-0.3-0.3-0.6-0.5-0.9c-0.1-0.2-0.2-0.4-0.3-0.5c0,0-0.1-0.1-0.1-0.2c-0.1-0.2-0.2-0.4-0.4-0.6c-0.1-0.2-0.2-0.4-0.4-0.5
		c-0.5-0.7-1-1.3-1.5-1.9c-0.2-0.2-0.4-0.4-0.5-0.5c-0.2-0.2-0.4-0.4-0.6-0.5c-0.2-0.2-0.4-0.3-0.6-0.5c-0.2-0.2-0.4-0.3-0.6-0.5
		c-0.2-0.2-0.4-0.3-0.6-0.4c-0.6-0.4-1.3-0.8-1.9-1.1c-0.2-0.1-0.4-0.2-0.7-0.3c-0.1,0-0.2-0.1-0.3-0.1c-0.4-0.2-0.9-0.3-1.3-0.5
		c-0.8-0.2-1.6-0.4-2.4-0.5c-0.3,0-0.5-0.1-0.8-0.1c-0.3,0-0.6-0.1-0.8-0.1C50.6,33.3,50.3,33.3,50,33.3L50,33.3z"/>
	<g>
		<path d="M38.3,95.1v-9.4l-3-1.3c-13.7-5.9-22.6-19.3-22.7-34.2v-0.2c0-20.5,16.7-37.3,37.2-37.4c20.6-0.1,37.5,16.6,37.6,37.2V50
			h5v-0.2C92.2,26.4,73.1,7.5,49.7,7.7C26.4,7.8,7.6,26.8,7.6,50.1v0.2C7.7,67.7,18.2,82.6,33.3,89v11.1h5V95.1z"/>
		<path d="M64.7,84.4l-3,1.3v9.4v5h5V89c15.1-6.5,25.7-21.5,25.7-39v0l-5,0C87.3,65,78.5,78.5,64.7,84.4z"/>
	</g>
</g>
<g id="Layer_2">
</g>
</svg>
