<?xml version="1.0" encoding="utf-8"?>
<!-- Generator: Adobe Illustrator 22.0.1, SVG Export Plug-In . SVG Version: 6.00 Build 0)  -->
<svg version="1.0" xmlns="http://www.w3.org/2000/svg" xmlns:xlink="http://www.w3.org/1999/xlink" x="0px" y="0px"
	 viewBox="0 0 100.1 100.1" style="enable-background:new 0 0 100.1 100.1;" xml:space="preserve">
<style type="text/css">
	.st0{fill:#D3357A;}
</style>
<g id="Default">
	<path d="M50.1,38.5c0.1,0,0.3,0,0.4,0l0.8,0.1l0,0c5.9,0.6,10.5,5.6,10.5,11.6c0,0.2,0,0.4,0,0.6l0,0.1l0,0.1c0,0.1,0,0.2,0,0.3
		l0,0.2l0,0.2c0,0.1,0,0.3-0.1,0.5c-0.1,0.5-0.2,1.1-0.4,1.6c-0.1,0.3-0.2,0.6-0.3,0.9l-0.1,0.2l0,0.1c-0.1,0.1-0.1,0.2-0.2,0.3
		l0,0.1l0,0.1c-0.2,0.4-0.5,0.9-0.7,1.3l-0.1,0.1l-0.1,0.1c0,0.1-0.1,0.1-0.1,0.2l0,0.1l0,0.1c-0.1,0.1-0.2,0.3-0.3,0.4
		c-0.1,0.1-0.1,0.2-0.2,0.3l-0.1,0.1l-0.1,0.2c0,0,0,0-0.1,0.1l-0.1,0.1l-0.1,0.2c-0.1,0.1-0.2,0.2-0.3,0.3
		c-0.4,0.4-0.8,0.7-1.3,1.1l-0.1,0.1l-0.1,0.1L56.4,60l-0.2,0.1c0,0-0.1,0-0.1,0.1l-0.2,0.1l-0.1,0.1c-0.1,0-0.2,0.1-0.2,0.1l-0.1,0
		l-0.1,0c-0.2,0.1-0.3,0.2-0.5,0.3l-0.1,0.1l-0.1,0c-0.1,0-0.2,0.1-0.3,0.1c0,0,0,0-0.1,0c-0.1,0-0.2,0.1-0.3,0.1l-0.1,0l-0.1,0
		c-0.1,0-0.2,0.1-0.2,0.1l-0.1,0l-0.1,0c-0.3,0.1-0.6,0.2-0.9,0.2l-0.2,0l-0.2,0l0,0h0l-0.1,0l-1.7,0.1l-0.1,0.1c-0.1,0-0.2,0-0.2,0
		H50c-0.2,0-0.4,0-0.5,0l-0.1,0l-0.1,0c-0.1,0-0.2,0-0.3,0l-0.2,0l-0.2,0c-0.1,0-0.3,0-0.4-0.1c-0.7-0.1-1.4-0.3-2.1-0.5l0,0l0,0
		c-0.1,0-0.3-0.1-0.4-0.2L45.5,61l0,0l-0.1,0c-0.1,0-0.2-0.1-0.3-0.2l0,0l0,0c-1.1-0.5-2.2-1.3-3.1-2.1l0,0l0,0l-0.1-0.1l-0.2-0.2
		c-0.1-0.1-0.1-0.1-0.2-0.2c-0.1-0.1-0.2-0.3-0.3-0.4c-0.1-0.2-0.3-0.3-0.4-0.5c-0.1-0.1-0.2-0.3-0.3-0.4l-0.1-0.1
		c-0.1-0.1-0.1-0.2-0.2-0.2l0-0.1l0-0.1c-0.1-0.1-0.1-0.2-0.2-0.3l-0.1-0.1l-0.1-0.1c-0.1-0.2-0.3-0.5-0.4-0.9l0,0l0,0
		c-0.1-0.1-0.1-0.2-0.2-0.4l0,0l0,0c-0.1-0.2-0.1-0.4-0.2-0.6c-0.2-0.5-0.3-1.1-0.4-1.6l0,0l0,0c-0.1-0.8-0.2-1.6-0.1-2.4
		c0.3-6,5.3-10.9,11.4-11.1C49.9,38.5,50,38.5,50.1,38.5 M50.1,33.5c-0.1,0-0.3,0-0.4,0c-8.6,0.2-15.8,7-16.3,15.8
		c-0.1,1.2,0,2.3,0.2,3.5c0.1,0.8,0.3,1.6,0.6,2.4c0.1,0.3,0.2,0.5,0.3,0.8c0.1,0.3,0.2,0.5,0.3,0.8c0.2,0.5,0.4,1,0.7,1.5
		c0.1,0.2,0.3,0.5,0.4,0.7c0.1,0.2,0.3,0.5,0.4,0.7c0.2,0.2,0.3,0.4,0.5,0.6c0.2,0.2,0.3,0.4,0.5,0.6c0.2,0.2,0.3,0.4,0.5,0.6
		c0.1,0.1,0.2,0.3,0.4,0.4c0.1,0.1,0.2,0.2,0.4,0.4c1.3,1.2,2.8,2.3,4.4,3.1c0.2,0.1,0.4,0.2,0.7,0.3c0.1,0,0.2,0.1,0.3,0.1
		c0.2,0.1,0.4,0.2,0.6,0.2c1,0.4,2,0.6,3.1,0.8c0.3,0,0.5,0.1,0.8,0.1c0.3,0,0.5,0.1,0.8,0.1c0.3,0,0.6,0,0.9,0h0.1
		c0.3,0,0.5,0,0.8,0c0,0,0.1,0,0.1,0c0.5,0,1-0.1,1.5-0.2c0,0,0,0,0,0c0.2,0,0.3,0,0.5-0.1c0.1,0,0.2,0,0.3-0.1
		c0.5-0.1,1-0.2,1.5-0.4c0.2-0.1,0.4-0.1,0.7-0.2c0.2-0.1,0.5-0.2,0.7-0.2c0,0,0.1,0,0.1,0c0.2-0.1,0.3-0.1,0.5-0.2
		c0.3-0.1,0.6-0.3,0.9-0.5c0.2-0.1,0.4-0.2,0.6-0.3c0,0,0.1-0.1,0.2-0.1c0.2-0.1,0.4-0.2,0.6-0.4c0.2-0.1,0.4-0.2,0.5-0.4
		c0.7-0.5,1.3-1,1.9-1.5c0.2-0.2,0.4-0.4,0.6-0.5c0.2-0.2,0.4-0.4,0.5-0.6c0.2-0.2,0.3-0.4,0.5-0.6c0.2-0.2,0.3-0.4,0.5-0.6
		c0.2-0.2,0.3-0.4,0.4-0.6c0.4-0.6,0.8-1.3,1.1-2c0.1-0.2,0.2-0.4,0.3-0.7c0-0.1,0.1-0.2,0.1-0.3c0.2-0.4,0.3-0.9,0.5-1.3
		c0.2-0.8,0.4-1.6,0.6-2.4c0-0.3,0.1-0.5,0.1-0.8c0-0.3,0.1-0.5,0.1-0.8c0-0.3,0-0.6,0-0.9c0-8.8-6.9-16.2-15.8-16.7
		c0,0-0.1,0-0.1,0c0,0,0,0,0,0C50.6,33.5,50.4,33.5,50.1,33.5L50.1,33.5z"/>
	<g>
		<path d="M50.1,87.6l0,5h0c-17.4,0-32.5-10.6-38.9-25.7H0v-5h14.4l1.3,3C21.6,78.7,35.1,87.6,50.1,87.6z"/>
		<path d="M92.5,50c0.1,23.4-18.7,42.5-42.1,42.6h-0.2v-5h0.2c20.6-0.1,37.3-17,37.2-37.6c-0.1-20.5-16.9-37.2-37.4-37.2h-0.2
			c-14.9,0.1-28.3,9-34.2,22.7l-1.3,3H0v-5h11.1c6.4-15,21.3-25.6,38.7-25.7h0.2C73.4,7.8,92.4,26.6,92.5,50z"/>
	</g>
</g>
<g id="Layer_2">
</g>
</svg>
