<?xml version="1.0" encoding="utf-8"?>
<!-- Generator: Adobe Illustrator 22.0.1, SVG Export Plug-In . SVG Version: 6.00 Build 0)  -->
<svg version="1.0" xmlns="http://www.w3.org/2000/svg" xmlns:xlink="http://www.w3.org/1999/xlink" x="0px" y="0px"
	 viewBox="0 0 100.1 100.1" style="enable-background:new 0 0 100.1 100.1;" xml:space="preserve">
<style type="text/css">
	.st0{fill:#D3357A;}
</style>
<g id="Default">
	<g>
		<path d="M99.9,33.3H71.6c-2.8,0-5-2.3-5-5V-0.1h-5v28.3c0,1.9,0.5,3.7,1.5,5.2h36.9V33.3z"/>
		<path d="M63,66.7c-0.9,1.5-1.4,3.2-1.4,5.1v28.3h5V71.8c0-2.8,2.3-5,5-5H100v-5h-0.1v4.9H63z"/>
		<path d="M63,66.7h36.9v-4.9H71.7C68,61.7,64.8,63.7,63,66.7z"/>
		<path d="M71.6,38.3h28.3v-4.8H63.1C64.8,36.4,68,38.3,71.6,38.3z"/>
	</g>
	<rect x="33.3" y="-0.1" width="5" height="100.3"/>
</g>
<g id="Layer_2">
</g>
</svg>
